<svg width="156" height="158" viewBox="0 0 156 158" fill="none" xmlns="http://www.w3.org/2000/svg">
<g clip-path="url(#clip0_206_1096)">
<path d="M0 78C0 34.9218 34.9218 0 78 0V0C121.078 0 156 34.9218 156 78V80C156 123.078 121.078 158 78 158V158C34.9218 158 0 123.078 0 80V78Z" fill="#B295D8"/>
<g filter="url(#filter0_d_206_1096)">
<path d="M76.7172 29.2295C59.6004 29.2295 45.7179 45.8474 45.7179 66.3539C45.7179 74.2749 34.5684 94.245 38.0958 100.27H115.462C118.989 94.245 107.707 74.2653 107.707 66.3539C107.707 45.8474 93.8339 29.2295 76.7172 29.2295Z" fill="url(#paint0_linear_206_1096)"/>
</g>
<path d="M97.4462 40.7423C97.607 36.7291 99.3565 28.358 105.078 26.9787C110.799 25.5995 102.373 35.5798 97.4462 40.7423ZM97.4462 40.7423C104.009 35.0626 116.823 25.1397 115.546 30.877C114.27 36.6238 102.941 39.842 97.4462 40.7423ZM97.4462 40.7423C102.978 43.4433 110.846 53.2512 117.911 44.6214C124.984 35.9916 133.089 36.9877 133.77 41.8438L97.4462 40.7423ZM97.4462 40.7423C103.092 41.2978 111.537 45.9336 115.395 38.8842C117.154 35.666 120.369 30.6854 125.079 29.4977" fill="#C2A8E3"/>
<path d="M97.4462 40.7423C103.092 41.2978 111.537 45.9336 115.395 38.8842C117.154 35.666 120.369 30.6854 125.079 29.4977M97.4462 40.7423C97.607 36.7291 99.3565 28.358 105.078 26.9787C110.799 25.5995 102.373 35.5798 97.4462 40.7423ZM97.4462 40.7423C104.009 35.0626 116.823 25.1397 115.546 30.877C114.27 36.6238 102.941 39.842 97.4462 40.7423ZM97.4462 40.7423C102.978 43.4433 110.846 53.2512 117.911 44.6214C124.984 35.9916 133.089 36.9877 133.77 41.8438L97.4462 40.7423Z" stroke="black" stroke-width="0.872932" stroke-linecap="round"/>
<path d="M39.7598 93.546L119.49 92.0039C126.875 91.64 143.604 95.088 151.425 111.802C151.189 111.275 180.372 163.638 182.793 171.166C190.718 186.242 178.84 209.871 156.229 201.758C153.487 201.164 131.055 188.617 131.055 188.617L130.885 200.216C130.885 200.216 126.157 197.63 117.324 198.358C108.492 199.096 98.2404 208.626 98.2404 208.626C100.236 190.293 79.2418 199.479 72.5464 208.626C72.5464 208.626 66.305 202.084 59.6379 200.954C50.5405 199.402 37.7077 209.861 37.7077 209.861V198.377L17.3946 203.779C3.52154 207.821 -11.7133 213.788 -16.4511 214.162C-34.523 215.589 -54.543 196.921 -39.5256 176.175C-35.4214 171.683 0.344066 122.97 0.344066 122.97C18.3686 99.9249 26.5771 93.546 39.7598 93.546Z" fill="#FF85D2"/>
<path d="M119.49 92.0039L39.7601 93.546C26.5868 93.546 18.3689 99.9249 0.344285 122.97C0.344285 122.97 -5.90663 131.484 -13.4815 141.714L21.7355 167.354L136.295 162.9L168.731 143.342C160.305 127.682 151.284 111.514 151.416 111.811C143.595 95.0881 126.876 91.64 119.49 92.0039Z" fill="white"/>
<path d="M39.7602 93.546L119.49 92.0039C126.876 91.64 143.605 95.0881 151.426 111.811C151.217 111.38 160.277 127.615 168.741 143.342L136.304 162.9L21.745 167.354L-13.4719 141.714C-5.89705 131.475 0.353863 122.97 0.353863 122.97C18.369 99.9249 26.5775 93.546 39.7602 93.546Z" stroke="black" stroke-width="0.581954"/>
<path d="M37.7072 209.88V198.377L17.3941 203.779L21.7442 167.354L39.7687 93.5459L52.6772 93.2968L55.9871 127.145L98.2399 128.525L105.134 92.2911L119.499 92.0134L136.313 162.91L131.045 188.694L130.875 200.235C130.875 200.235 126.147 197.649 117.314 198.377C108.482 199.115 98.2304 208.645 98.2304 208.645C100.226 190.312 79.2318 199.498 72.5364 208.645C72.5364 208.645 66.295 202.103 59.6279 200.973C50.5305 199.421 37.7072 209.88 37.7072 209.88Z" fill="#6983FF"/>
<path d="M141.174 160.017L168.57 143.418L142.403 163.494L139.935 162.421L141.174 160.017Z" fill="black"/>
<path d="M12.8931 160.64L-13.2076 142.02L11.4084 164.021L13.9428 163.139L12.8931 160.64Z" fill="black"/>
<path d="M93.5689 136.043C93.3987 133.898 93.5972 129.703 95.7723 130.095C98.4864 130.584 101.995 136.043 105.012 134.003C106.515 132.777 104.879 127.644 106.042 126.178" stroke="white" stroke-width="0.581954" stroke-linecap="round"/>
<path d="M38.2568 119.042C38.0866 116.897 38.2852 112.702 40.4603 113.094C43.1744 113.583 46.6828 119.042 49.6995 117.002C51.2032 115.776 49.5671 110.642 50.7303 109.177" stroke="white" stroke-width="0.581954" stroke-linecap="round"/>
<path d="M140.853 145.918C140.683 143.773 140.881 139.578 143.056 139.97C145.77 140.459 149.279 145.918 152.296 143.878C153.799 142.652 152.163 137.518 153.326 136.053" stroke="white" stroke-width="0.581954" stroke-linecap="round"/>
<path d="M105.871 102.492C105.701 100.346 105.9 96.1511 108.075 96.5438C110.789 97.0323 114.297 102.492 117.314 100.452C118.817 99.2256 117.181 94.0918 118.345 92.6264" stroke="white" stroke-width="0.872932" stroke-linecap="round"/>
<path d="M39.3062 103.9C39.136 101.754 39.3346 97.5591 41.5097 97.9518C44.2237 98.4402 47.7322 103.9 50.7394 101.86C52.2431 100.634 50.6071 95.4998 51.7702 94.0344" stroke="white" stroke-width="0.872932" stroke-linecap="round"/>
<path d="M54.3516 73.3554L54.588 74.3419C54.9947 76.0372 56.0727 77.4835 57.5669 78.3455C56.0727 79.2075 54.9947 80.6538 54.588 82.3491L54.3516 83.3357L54.1152 82.3491C53.7086 80.6538 52.6305 79.2075 51.1363 78.3455C52.6305 77.4835 53.7086 76.0372 54.1152 74.3419L54.3516 73.3554Z" fill="#F6FB03"/>
<path d="M57.8982 60.9042L55.4016 56.4504C56.2054 43.932 63.8086 40.4073 71.1755 40.4073C72.6885 45.3687 86.3914 57.8967 91.2616 59.6687L92.3302 64.6301C96.7844 60.9042 102.875 61.5651 104.35 66.0476C106.345 73.9878 99.9808 76.3248 93.0679 76.0279V83.288V95.7969C93.0679 95.7969 90.5335 99.0055 87.6775 100.452C78.0789 105.844 69.0288 99.2832 66.6929 95.7969V84.2458C63.8559 84.2458 57.9076 84.6098 55.411 79.5526C52.8388 74.3613 55.4772 65.3101 57.8982 60.9042Z" fill="#E2AB78"/>
<path d="M96.7274 73.3554L96.9638 74.3419C97.3704 76.0372 98.4485 77.4835 99.9427 78.3455C98.4485 79.2075 97.3704 80.6538 96.9638 82.3491L96.7274 83.3357L96.4909 82.3491C96.0843 80.6538 95.0062 79.2075 93.512 78.3455C95.0062 77.4835 96.0843 76.0372 96.4909 74.3419L96.7274 73.3554Z" fill="#F6FB03"/>
<path d="M66.6359 89.2547L75.5063 83.3259C75.5063 83.3259 72.7544 83.8048 70.9954 83.9772C69.2838 84.1496 66.6264 84.2359 66.6264 84.2359V89.2547H66.6359Z" fill="black"/>
<path d="M67.1944 56.7088C66.3244 61.2487 69.7572 63.9114 69.7572 63.9114L65.6624 71.2386H70.4948" stroke="black" stroke-width="0.872932" stroke-linecap="round"/>
<path d="M75.686 56.6512C77.1046 56.4022 78.542 56.4309 79.535 56.7183" stroke="black" stroke-width="0.872932" stroke-linecap="round"/>
<path d="M60.4511 55.7895C61.8696 55.5405 63.307 55.5692 64.3 55.8566" stroke="black" stroke-width="0.872932" stroke-linecap="round"/>
<path d="M73.4734 75.7209C74.7501 75.0409 75.866 74.1214 76.4806 73.2881" stroke="black" stroke-width="0.872932" stroke-linecap="round"/>
<path d="M95.4508 69.2847L100.595 65.0416" stroke="black" stroke-width="0.872932" stroke-linecap="round"/>
<path d="M99.2152 66.5742L101.948 69.2848" stroke="black" stroke-width="0.872932" stroke-linecap="round"/>
<path d="M77.8137 63.3561C78.289 63.3561 78.6743 62.9658 78.6743 62.4845C78.6743 62.0031 78.289 61.6129 77.8137 61.6129C77.3384 61.6129 76.9531 62.0031 76.9531 62.4845C76.9531 62.9658 77.3384 63.3561 77.8137 63.3561Z" fill="black"/>
<path d="M62.579 62.4936C63.0542 62.4936 63.4395 62.1034 63.4395 61.622C63.4395 61.1407 63.0542 60.7504 62.579 60.7504C62.1037 60.7504 61.7184 61.1407 61.7184 61.622C61.7184 62.1034 62.1037 62.4936 62.579 62.4936Z" fill="black"/>
</g>
<defs>
<filter id="filter0_d_206_1096" x="33.406" y="29.2295" width="86.7386" height="79.04" filterUnits="userSpaceOnUse" color-interpolation-filters="sRGB">
<feFlood flood-opacity="0" result="BackgroundImageFix"/>
<feColorMatrix in="SourceAlpha" type="matrix" values="0 0 0 0 0 0 0 0 0 0 0 0 0 0 0 0 0 0 127 0" result="hardAlpha"/>
<feOffset dy="4"/>
<feGaussianBlur stdDeviation="2"/>
<feComposite in2="hardAlpha" operator="out"/>
<feColorMatrix type="matrix" values="0 0 0 0 0 0 0 0 0 0 0 0 0 0 0 0 0 0 0.25 0"/>
<feBlend mode="normal" in2="BackgroundImageFix" result="effect1_dropShadow_206_1096"/>
<feBlend mode="normal" in="SourceGraphic" in2="effect1_dropShadow_206_1096" result="shape"/>
</filter>
<linearGradient id="paint0_linear_206_1096" x1="76.7753" y1="29.2295" x2="76.7753" y2="100.27" gradientUnits="userSpaceOnUse">
<stop offset="0.104167" stop-color="#1F1F1D"/>
<stop offset="0.833333" stop-color="#E8DB66"/>
</linearGradient>
<clipPath id="clip0_206_1096">
<path d="M0 78C0 34.9218 34.9218 0 78 0V0C121.078 0 156 34.9218 156 78V80C156 123.078 121.078 158 78 158V158C34.9218 158 0 123.078 0 80V78Z" fill="white"/>
</clipPath>
</defs>
</svg>
